<?xml version="1.0" standalone="no"?>
<!DOCTYPE svg PUBLIC "-//W3C//DTD SVG 20010904//EN"
 "http://www.w3.org/TR/2001/REC-SVG-20010904/DTD/svg10.dtd">
<svg version="1.0" xmlns="http://www.w3.org/2000/svg"
 width="169.000000pt" height="169.000000pt" viewBox="0 0 169.000000 169.000000"
 preserveAspectRatio="xMidYMid meet">
<metadata>
Created by potrace 1.14, written by Peter Selinger 2001-2017
</metadata>
<g transform="translate(0.000000,169.000000) scale(0.100000,-0.100000)"
fill="#000000" stroke="none">
<path d="M206 1502 c-2 -4 -3 -196 -1 -427 2 -402 3 -423 24 -484 44 -131 103
-215 206 -291 43 -32 75 -47 180 -86 52 -19 160 -31 260 -28 118 4 133 5 153
17 6 5 12 6 12 3 0 -3 32 6 71 20 187 63 308 197 366 405 4 13 9 216 10 451
l4 426 -640 0 c-353 0 -643 -3 -645 -6z m1234 -21 l26 -1 -2 -397 c-1 -262 -5
-415 -13 -448 -16 -69 -76 -187 -123 -240 -150 -170 -464 -235 -726 -149 -92
30 -151 64 -212 125 -46 45 -109 140 -123 184 -38 127 -40 160 -38 742 l1 182
43 3 c32 2 1042 1 1167 -1z"/>
<path d="M266 1440 c-2 -3 -2 -180 -1 -395 3 -390 3 -390 28 -456 88 -231 272
-343 562 -342 68 0 160 8 160 13 0 2 14 5 54 14 55 12 157 73 212 126 59 58
120 165 136 238 4 20 8 210 8 422 l0 385 -578 0 c-318 1 -580 -2 -581 -5z"/>
</g>
</svg>
